<svg xmlns="http://www.w3.org/2000/svg" viewBox="0 0 1200 320" fill="none">
  <defs>
    <linearGradient id="bodyGrad" x1="0%" y1="0%" x2="100%" y2="100%">
      <stop offset="0%" stop-color="#ff3b2e"/>
      <stop offset="45%" stop-color="#c40000"/>
      <stop offset="100%" stop-color="#5a0000"/>
    </linearGradient>
    <linearGradient id="highlightGrad" x1="0%" y1="0%" x2="0%" y2="100%">
      <stop offset="0%" stop-color="#ff8a7a" stop-opacity="0.9"/>
      <stop offset="100%" stop-color="#ff3b2e" stop-opacity="0"/>
    </linearGradient>
    <linearGradient id="wingGrad" x1="0%" y1="0%" x2="100%" y2="0%">
      <stop offset="0%" stop-color="#1a1a1a"/>
      <stop offset="100%" stop-color="#3d3d3d"/>
    </linearGradient>
    <filter id="glow" x="-20%" y="-20%" width="140%" height="140%">
      <feGaussianBlur stdDeviation="8" result="blur"/>
      <feMerge>
        <feMergeNode in="blur"/>
        <feMergeNode in="SourceGraphic"/>
      </feMerge>
    </filter>
  </defs>
  <g filter="url(#glow)">
    <path fill="url(#bodyGrad)" d="M40 220 L120 210 L180 195 L260 188 L340 182 L420 178 L500 176 L580 174 L660 172 L740 170 L820 168 L900 166 L980 164 L1040 162 L1100 160 L1120 158 L1140 170 L1150 190 L1140 210 L1120 220 L1080 228 L1000 232 L900 234 L780 236 L620 238 L440 240 L280 238 L160 232 L80 226 Z"/>
    <path fill="url(#highlightGrad)" opacity="0.55" d="M200 195 L420 178 L680 172 L920 166 L1080 162 L1100 160 L1080 175 L800 182 L500 188 L260 198 Z"/>
    <path fill="url(#wingGrad)" d="M30 195 L50 175 L70 165 L90 160 L110 158 L130 165 L140 180 L135 200 L120 215 L90 225 L60 228 L40 220 Z"/>
    <path fill="url(#wingGrad)" d="M1080 155 L1100 140 L1120 130 L1145 125 L1165 130 L1175 145 L1170 165 L1155 180 L1130 188 L1105 185 L1085 175 Z"/>
    <ellipse cx="200" cy="238" rx="42" ry="42" fill="#111"/>
    <ellipse cx="200" cy="238" rx="28" ry="28" fill="#2a2a2a"/>
    <ellipse cx="200" cy="238" rx="14" ry="14" fill="#555"/>
    <ellipse cx="420" cy="240" rx="42" ry="42" fill="#111"/>
    <ellipse cx="420" cy="240" rx="28" ry="28" fill="#2a2a2a"/>
    <ellipse cx="420" cy="240" rx="14" ry="14" fill="#555"/>
    <ellipse cx="780" cy="238" rx="44" ry="44" fill="#111"/>
    <ellipse cx="780" cy="238" rx="30" ry="30" fill="#2a2a2a"/>
    <ellipse cx="780" cy="238" rx="15" ry="15" fill="#555"/>
    <ellipse cx="1020" cy="232" rx="44" ry="44" fill="#111"/>
    <ellipse cx="1020" cy="232" rx="30" ry="30" fill="#2a2a2a"/>
    <ellipse cx="1020" cy="232" rx="15" ry="15" fill="#555"/>
    <path fill="#0a0a0a" d="M520 176 L560 120 L600 100 L640 95 L680 100 L720 120 L760 176 L720 185 L640 188 L560 185 Z"/>
    <path fill="url(#highlightGrad)" opacity="0.4" d="M580 130 L640 110 L700 130 L680 170 L620 175 Z"/>
  </g>
</svg>
